<svg width="22" height="24" viewBox="0 0 22 24" fill="none" xmlns="http://www.w3.org/2000/svg">
<path id="Vector" d="M20.899 5.06316C21.0183 5.12123 21.1202 5.21761 21.1842 5.34549C21.1872 5.35159 21.1901 5.35771 21.193 5.36386C21.1992 5.37733 21.2049 5.39104 21.2101 5.40496C21.239 5.48151 21.2518 5.56014 21.2501 5.63757V10C21.2501 10.3452 20.9703 10.625 20.6251 10.625C20.28 10.625 20.0001 10.3452 20.0001 10V6.63627L17.1546 8.05902C16.8459 8.21338 16.4705 8.08824 16.3161 7.77951C16.1618 7.47077 16.2869 7.09535 16.5956 6.94098L19.2276 5.625L16.5956 4.30902C16.2869 4.15465 16.1618 3.77923 16.3161 3.47049C16.4705 3.16175 16.8459 3.03661 17.1546 3.19098L20.899 5.06316ZM21.2501 18.1124C21.2521 18.2042 21.2337 18.2976 21.193 18.3861C21.1624 18.4527 21.1202 18.5135 21.0684 18.5657C21.0157 18.618 20.9596 18.6573 20.899 18.6868L17.1546 20.559C16.8459 20.7134 16.4705 20.5882 16.3161 20.2795C16.1618 19.9708 16.2869 19.5953 16.5956 19.441L19.2276 18.125L16.5956 16.809C16.2869 16.6546 16.1618 16.2792 16.3161 15.9705C16.4705 15.6618 16.8459 15.5366 17.1546 15.691L20.0001 17.1137V13.75C20.0001 13.4048 20.28 13.125 20.6251 13.125C20.9703 13.125 21.2501 13.4048 21.2501 13.75V18.1124ZM2.02268 18.125L4.65464 19.441C4.96338 19.5953 5.08852 19.9708 4.93415 20.2795C4.77979 20.5882 4.40437 20.7134 4.09563 20.559L0.351275 18.6868C0.231929 18.6288 0.130061 18.5324 0.0661198 18.4045C0.0630713 18.3984 0.060132 18.3923 0.0573007 18.3861C0.0511018 18.3727 0.0453762 18.359 0.0401391 18.345C0.0113042 18.2685 -0.0014866 18.1899 0.000136909 18.1124V13.75C0.000136909 13.4048 0.279959 13.125 0.625137 13.125C0.970315 13.125 1.25014 13.4048 1.25014 13.75V17.1137L4.09563 15.691C4.40437 15.5366 4.77979 15.6618 4.93415 15.9705C5.08852 16.2792 4.96338 16.6546 4.65464 16.809L2.02268 18.125ZM1.25014 6.63627V10C1.25014 10.3452 0.970315 10.625 0.625137 10.625C0.279959 10.625 0.000136909 10.3452 0.000136909 10V5.63757C-0.00178708 5.54581 0.0165324 5.45237 0.0573007 5.36386C0.087913 5.29732 0.130067 5.23648 0.181921 5.18431C0.234546 5.13203 0.290656 5.09265 0.351275 5.06316L4.09563 3.19098C4.40437 3.03661 4.77979 3.16175 4.93415 3.47049C5.08852 3.77923 4.96338 4.15465 4.65464 4.30902L2.02268 5.625L4.65464 6.94098C4.96338 7.09535 5.08852 7.47077 4.93415 7.77951C4.77979 8.08824 4.40437 8.21338 4.09563 8.05902L1.25014 6.63627ZM10.3344 0.071606C10.4212 0.0258794 10.5202 0 10.6251 0C10.7301 0 10.829 0.0258794 10.9159 0.071606L14.6546 1.94098C14.9634 2.09535 15.0885 2.47077 14.9342 2.77951C14.7798 3.08824 14.4044 3.21338 14.0956 3.05902L11.2501 1.63627V5C11.2501 5.34518 10.9703 5.625 10.6251 5.625C10.28 5.625 10.0001 5.34518 10.0001 5V1.63627L7.15465 3.05902C6.84591 3.21338 6.47049 3.08824 6.31612 2.77951C6.16175 2.47077 6.28689 2.09535 6.59563 1.94098L10.3344 0.071606ZM10.9159 23.6784C10.829 23.7241 10.7301 23.75 10.6251 23.75C10.5202 23.75 10.4212 23.7241 10.3344 23.6784L6.59563 21.809C6.28689 21.6546 6.16175 21.2792 6.31612 20.9705C6.47049 20.6618 6.84591 20.5366 7.15465 20.691L10.0001 22.1137V18.75C10.0001 18.4048 10.28 18.125 10.6251 18.125C10.9703 18.125 11.2501 18.4048 11.2501 18.75V22.1137L14.0956 20.691C14.4044 20.5366 14.7798 20.6618 14.9342 20.9705C15.0885 21.2792 14.9634 21.6546 14.6546 21.809L10.9159 23.6784ZM11.2501 11.0113V14.375C11.2501 14.7202 10.9703 15 10.6251 15C10.28 15 10.0001 14.7202 10.0001 14.375V11.0113L6.59563 9.30902C6.28689 9.15465 6.16175 8.77923 6.31612 8.47049C6.47049 8.16175 6.84591 8.03661 7.15465 8.19098L10.6251 9.92623L14.0956 8.19098C14.4044 8.03661 14.7798 8.16175 14.9342 8.47049C15.0885 8.77923 14.9634 9.15465 14.6546 9.30902L12.9524 10.1601L11.2501 11.0113Z" fill="#303030"/>
</svg>
