<svg width="315" height="64" viewBox="0 0 315 64" fill="none" xmlns="http://www.w3.org/2000/svg">
<rect y="32.1023" width="105" height="1" rx="0.5" fill="#BDBDBD"/>
<rect x="210" y="32.1023" width="105" height="1" rx="0.5" fill="#BDBDBD"/>
<path d="M156.702 63.0145C173.633 63.0145 187.404 48.8817 187.404 31.5087C187.404 14.1328 173.633 0 156.702 0C139.771 0 126 14.1328 126 31.5087C126.003 48.8817 139.774 63.0145 156.702 63.0145ZM156.702 0.570483C173.324 0.570483 186.848 14.4504 186.848 31.5087C186.848 48.567 173.326 62.444 156.705 62.444C140.083 62.444 126.559 48.567 126.559 31.5087C126.559 14.4504 140.08 0.570483 156.702 0.570483Z" fill="#303030"/>
<path d="M144.043 42.9322L158.631 44.2614C158.643 43.054 158.724 38.8695 159.307 36.9652C159.971 34.7913 165.998 35.5816 167.53 35.8199C168.389 31.3894 169.845 28.5833 169.908 28.4641C169.984 28.3191 170.161 28.2646 170.302 28.3424C170.444 28.4201 170.497 28.6015 170.421 28.7466C170.406 28.7751 168.881 31.7184 168.048 36.2138C168.017 36.3718 167.868 36.4781 167.714 36.4521C164.905 35.9754 160.289 35.7396 159.863 37.1413C159.219 39.2452 159.211 44.5334 159.211 44.5852C159.211 44.6682 159.176 44.7485 159.118 44.8055C159.065 44.8547 158.994 44.8832 158.921 44.8832C158.914 44.8832 158.903 44.8832 158.896 44.8832L143.995 43.5255C143.836 43.51 143.718 43.3649 143.733 43.2017C143.74 43.0384 143.884 42.9192 144.043 42.9322Z" fill="#303030"/>
<path d="M141.233 35.5971C141.451 35.2163 141.804 34.9805 142.286 34.895C143.804 34.6255 152.834 35.636 154.538 35.8303C154.647 35.2422 154.859 33.7394 154.488 32.405C154.102 31.0163 153.296 28.1273 155.594 27.3941C156.669 27.0495 157.871 27.2101 159.259 27.3941C160.385 27.5444 161.663 27.7128 163.094 27.6376C163.839 27.5988 164.46 27.5703 165.023 27.5444C166.856 27.4614 168.071 27.407 170.883 27.0676C171.451 26.8914 172.067 27.0132 172.532 27.3993C173.006 27.7931 173.256 28.3968 173.198 29.0212L171.388 48.9226C171.378 49.0495 171.289 49.1531 171.171 49.1842L171.1 49.2024V49.7206C171.1 49.8294 171.029 49.9253 170.926 49.9538L169.484 50.3398C169.335 50.3787 169.191 50.2647 169.191 50.1066V49.6947L162.918 51.314V51.8504C162.918 51.9592 162.85 52.0551 162.746 52.0887L160.759 52.7183C160.721 52.7313 160.681 52.7339 160.643 52.7261L159.141 52.4385C159.027 52.4178 158.944 52.3142 158.944 52.195V51.6794L143.675 49.9486V50.2284C143.675 50.3502 143.571 50.4461 143.453 50.4331L142.163 50.2776C142.062 50.2647 141.986 50.1766 141.986 50.073V49.7413C141.877 49.6973 141.799 49.5936 141.799 49.4667V38.9343L141.211 37.7865C141.203 37.7736 141.198 37.7606 141.193 37.7476C141.17 37.6958 140.751 36.4444 141.233 35.5971ZM141.731 37.5326L142.342 38.727C142.364 38.7711 142.375 38.8177 142.375 38.8669V49.2076L160.413 51.2518L160.741 39.0509C160.746 38.8851 160.88 38.7529 161.039 38.7607C161.201 38.7659 161.327 38.9032 161.322 39.0665L160.996 51.1974L170.827 48.6609L172.62 28.9694C172.658 28.5471 172.489 28.1351 172.165 27.8682C171.842 27.6014 171.431 27.521 171.029 27.6506C171.012 27.6558 170.994 27.6609 170.974 27.6635C168.121 28.0081 166.897 28.0626 165.046 28.1481C164.485 28.174 163.864 28.2025 163.122 28.2413C161.638 28.3191 160.332 28.1481 159.181 27.9952C157.858 27.819 156.717 27.6687 155.763 27.9745C154.22 28.4667 154.506 30.3219 155.043 32.2522C155.556 34.0969 155.066 36.1542 155.046 36.2397C155.01 36.3848 154.879 36.4807 154.73 36.4625C151.004 36.0298 143.629 35.2681 142.38 35.4909C142.072 35.5453 141.86 35.6826 141.731 35.9055C141.453 36.39 141.632 37.2243 141.731 37.5326Z" fill="#303030"/>
<path d="M145.8 34.3638C145.962 34.3638 146.091 34.229 146.091 34.0658V21.4892C146.091 21.3234 145.96 21.1912 145.8 21.1912C145.639 21.1912 145.51 21.326 145.51 21.4892V34.0658C145.51 34.2316 145.641 34.3638 145.8 34.3638Z" fill="#303030"/>
<path d="M140.489 20.8492H151.115C151.208 20.8492 151.297 20.8026 151.352 20.7223C151.408 20.6445 151.42 20.5435 151.39 20.4502L147.987 10.4827C147.946 10.3635 147.835 10.2832 147.712 10.2832H143.892C143.768 10.2832 143.66 10.3635 143.617 10.4827L140.213 20.4502C140.183 20.5409 140.196 20.6419 140.251 20.7223C140.307 20.8026 140.395 20.8492 140.489 20.8492Z" fill="#303030"/>
<path d="M144.485 23.4272C144.647 23.4272 144.776 23.2925 144.776 23.1293V21.4892C144.776 21.3234 144.644 21.1912 144.485 21.1912C144.324 21.1912 144.195 21.326 144.195 21.4892V23.1293C144.195 23.2925 144.324 23.4272 144.485 23.4272Z" fill="#303030"/>
<path d="M148.169 23.0127C148.987 23.0127 149.653 22.3287 149.653 21.4892C149.653 21.3234 149.522 21.1912 149.363 21.1912C149.201 21.1912 149.072 21.326 149.072 21.4892C149.072 21.9996 148.666 22.4168 148.169 22.4168C147.671 22.4168 147.265 21.9996 147.265 21.4892C147.265 21.3234 147.134 21.1912 146.974 21.1912C146.813 21.1912 146.684 21.326 146.684 21.4892C146.684 22.3287 147.351 23.0127 148.169 23.0127Z" fill="#303030"/>
</svg>
