<svg width="60" height="60" viewBox="0 0 60 60" fill="none" xmlns="http://www.w3.org/2000/svg">
<g id="Property 1=Default">
<rect id="Rectangle 44" opacity="0.4" width="60" height="60" rx="16" fill="#E0E0E0"/>
<path id="Vector (Stroke)" fill-rule="evenodd" clip-rule="evenodd" d="M22.0251 19.0251C22.6815 18.3687 23.5717 18 24.5 18H35C35.9283 18 36.8185 18.3687 37.4749 19.0251C38.1313 19.6815 38.5 20.5717 38.5 21.5V41.625C38.5 41.9696 38.2978 42.2821 37.9834 42.4232C37.6691 42.5644 37.3012 42.5079 37.0437 42.279L29.75 35.7957L22.4563 42.279C22.1988 42.5079 21.8309 42.5644 21.5166 42.4232C21.2022 42.2821 21 41.9696 21 41.625V21.5C21 20.5717 21.3687 19.6815 22.0251 19.0251ZM24.5 19.75C24.0359 19.75 23.5908 19.9344 23.2626 20.2626C22.9344 20.5908 22.75 21.0359 22.75 21.5V39.6765L29.1687 33.971C29.5002 33.6763 29.9998 33.6763 30.3313 33.971L36.75 39.6765V21.5C36.75 21.0359 36.5656 20.5908 36.2374 20.2626C35.9092 19.9344 35.4641 19.75 35 19.75H24.5Z" fill="black"/>
</g>
</svg>
