<svg width="60" height="60" viewBox="0 0 60 60" fill="none" xmlns="http://www.w3.org/2000/svg">
<g id="Property 1=Variant2">
<rect id="Rectangle 44" opacity="0.4" width="60" height="60" rx="16" fill="#E0E0E0"/>
<path id="Vector" d="M38.1 41.9978C37.8799 41.9984 37.6672 41.9222 37.5021 41.7835L30 35.4311L22.4979 41.7835C22.3681 41.8934 22.2077 41.9652 22.036 41.9902C21.8642 42.0152 21.6886 41.9923 21.5302 41.9243C21.3719 41.8564 21.2376 41.7462 21.1435 41.6072C21.0494 41.4681 20.9996 41.3061 21 41.1407V21.4283C21.001 20.5193 21.3807 19.6479 22.0556 19.0052C22.7305 18.3625 23.6455 18.001 24.6 18H35.4C36.3545 18.001 37.2695 18.3625 37.9444 19.0052C38.6193 19.6479 38.999 20.5193 39 21.4283V41.1407C39 41.368 38.9052 41.586 38.7364 41.7467C38.5676 41.9075 38.3387 41.9978 38.1 41.9978Z" fill="black"/>
</g>
</svg>
