<svg width="28" height="28" viewBox="0 0 28 28" fill="none" xmlns="http://www.w3.org/2000/svg">
<g id="chair 4" clip-path="url(#clip0_1_276)">
<g id="Group">
<g id="Vector" filter="url(#filter0_d_1_276)">
<path d="M19.8313 14.0549H19.7875L20.2508 4.1568C20.2614 3.9305 20.0865 3.73849 19.8602 3.72794C19.634 3.71705 19.4419 3.89222 19.4314 4.11846L18.9663 14.0549H9.03376L8.64542 5.76007C8.50428 2.74455 8.51237 2.93973 8.51237 2.86891C8.51237 1.73934 9.43238 0.820312 10.5632 0.820312H17.4368C18.5676 0.820312 19.4876 1.73934 19.4876 2.86891C19.4876 2.93601 19.4901 2.86355 19.4314 4.11846C19.4208 4.3447 19.5956 4.53671 19.8219 4.54732C20.0481 4.55831 20.2402 4.38309 20.2508 4.1568C20.3093 2.90544 20.3079 2.96144 20.3079 2.86891C20.3079 1.28696 19.0199 0 17.4368 0H10.5633C8.98011 0 7.69211 1.28696 7.69211 2.86891C7.69211 2.96603 7.68358 2.75466 7.8261 5.79841L8.21263 14.0549H8.16882C7.39986 14.0549 6.77429 14.6805 6.77429 15.4494V17.4832C6.77429 18.2521 7.39986 18.8777 8.16882 18.8777H8.45107V23.3894C8.45107 23.6159 8.63471 23.7996 8.86122 23.7996C9.08774 23.7996 9.27138 23.6159 9.27138 23.3894V18.8777H10.5027L9.93441 26.8713C9.9221 27.0442 9.77669 27.1797 9.60328 27.1797C9.42024 27.1797 9.27138 27.0308 9.27138 26.8478V23.3894C9.27138 23.1629 9.08774 22.9792 8.86122 22.9792C8.63471 22.9792 8.45107 23.1629 8.45107 23.3894V26.8478C8.45107 27.4831 8.96797 28 9.60328 28C10.2051 28 10.7099 27.5297 10.7526 26.9294L11.3251 18.8777H16.6752L17.2477 26.9295C17.2902 27.5297 17.7951 28 18.3969 28C19.0322 28 19.5491 27.4831 19.5491 26.8478V18.8777H19.8313C20.6003 18.8777 21.2258 18.2521 21.2258 17.4832V15.4494C21.2258 14.6805 20.6003 14.0549 19.8313 14.0549ZM18.7288 26.8478C18.7288 27.0308 18.5798 27.1797 18.3969 27.1797C18.2235 27.1797 18.078 27.0442 18.0657 26.8713L17.4975 18.8777H18.7288V26.8478ZM20.4055 17.4832C20.4055 17.7998 20.148 18.0574 19.8313 18.0574C18.5628 18.0574 9.42598 18.0574 8.16871 18.0574C7.85207 18.0574 7.59449 17.7998 7.59449 17.4832V15.4494C7.59449 15.1328 7.85207 14.8752 8.16871 14.8752H19.8313C20.148 14.8752 20.4055 15.1328 20.4055 15.4494V17.4832Z" fill="#909090"/>
</g>
</g>
</g>
<defs>
<filter id="filter0_d_1_276" x="2.77429" y="0" width="22.4515" height="36" filterUnits="userSpaceOnUse" color-interpolation-filters="sRGB">
<feFlood flood-opacity="0" result="BackgroundImageFix"/>
<feColorMatrix in="SourceAlpha" type="matrix" values="0 0 0 0 0 0 0 0 0 0 0 0 0 0 0 0 0 0 127 0" result="hardAlpha"/>
<feOffset dy="4"/>
<feGaussianBlur stdDeviation="2"/>
<feComposite in2="hardAlpha" operator="out"/>
<feColorMatrix type="matrix" values="0 0 0 0 0 0 0 0 0 0 0 0 0 0 0 0 0 0 0.25 0"/>
<feBlend mode="normal" in2="BackgroundImageFix" result="effect1_dropShadow_1_276"/>
<feBlend mode="normal" in="SourceGraphic" in2="effect1_dropShadow_1_276" result="shape"/>
</filter>
<clipPath id="clip0_1_276">
<rect width="28" height="28" fill="white"/>
</clipPath>
</defs>
</svg>
