<svg width="24" height="24" viewBox="0 0 24 24" fill="none" xmlns="http://www.w3.org/2000/svg">
<g id="edit-2">
<path id="&#240;&#159;&#142;&#168; Icon &#208;&#161;olor" fill-rule="evenodd" clip-rule="evenodd" d="M4.88091 17.4241C4.67931 17.2172 4.57851 16.9295 4.60347 16.6379L4.96731 12.5295C5.00763 12.0793 5.20155 11.6547 5.51451 11.3335L14.1507 2.47041C14.8246 1.77583 16.0467 1.81032 16.758 2.53839L19.3865 5.23593L19.3875 5.23692C20.1219 5.9916 20.1516 7.1916 19.4527 7.91081L10.8156 16.7748C10.5036 17.095 10.0899 17.2941 9.65019 17.3354L5.64699 17.7088C5.61819 17.7108 5.58939 17.7118 5.55963 17.7118C5.30715 17.7118 5.06235 17.6093 4.88091 17.4241ZM16.1379 8.52854L13.5507 5.87337L15.4207 3.95317L18.007 6.60736L16.1379 8.52854ZM9.47642 15.3719L6.6185 15.6389L6.87194 12.7266L12.2643 7.19258L14.8524 9.84972L9.47642 15.3719ZM18.9996 21.6527C19.5276 21.6527 19.9596 21.2093 19.9596 20.6675C19.9596 20.1266 19.5276 19.6822 18.9996 19.6822H5.55962C5.03258 19.6822 4.59962 20.1266 4.59962 20.6675C4.59962 21.2093 5.03258 21.6527 5.55962 21.6527H18.9996Z" fill="#808080"/>
</g>
</svg>
