<svg width="20" height="20" viewBox="0 0 20 20" fill="none" xmlns="http://www.w3.org/2000/svg">
<g id="shopping_bag icon/activated">
<path id="Vector" d="M17.9687 16.3105L16.6667 4.06057C16.6667 3.29041 16.07 2.66663 15.3333 2.66663H10H4.66667C3.93 2.66663 3.33333 3.29041 3.33333 4.06057L2.03133 16.3105C2.012 16.406 2 16.5043 2 16.606C2 17.3762 2.59667 18 3.33333 18H10H16.6667C17.4033 18 18 17.3762 18 16.606C18 16.5043 17.988 16.406 17.9687 16.3105ZM13.3333 6.08735V6.84844C13.3333 8.76999 11.838 10.3333 10 10.3333C8.162 10.3333 6.66667 8.76999 6.66667 6.84844V6.08735C6.27933 5.94378 6 5.56044 6 5.10602C6 4.52893 6.448 4.06057 7 4.06057C7.552 4.06057 8 4.52893 8 5.10602V6.84844C8 8.00123 8.89733 8.93935 10 8.93935C11.1027 8.93935 12 8.00123 12 6.84844V5.10602C12 4.52893 12.448 4.06057 13 4.06057C13.552 4.06057 14 4.52893 14 5.10602C14 5.56044 13.7207 5.94378 13.3333 6.08735Z" fill="#303030"/>
</g>
</svg>
