<svg width="28" height="28" viewBox="0 0 28 28" fill="none" xmlns="http://www.w3.org/2000/svg">
<g id="sofa 1" clip-path="url(#clip0_1_287)">
<g id="Group">
<g id="Vector" filter="url(#filter0_d_1_287)">
<path d="M25.6667 8.86672H25.2V5.60006C25.1985 4.31206 24.1547 3.26824 22.8667 3.26672H5.13333C3.84533 3.26824 2.80152 4.31206 2.8 5.60006V8.86672H2.33333C1.04533 8.86824 0.00151667 9.91206 0 11.2001V18.6667C0.00151667 19.9547 1.04533 20.9985 2.33333 21.0001H2.8V24.2667C2.8 24.5244 3.00895 24.7334 3.26667 24.7334H4.2C4.39466 24.7335 4.56896 24.6128 4.63727 24.4305L5.9234 21.0001H22.0766L23.3627 24.4305C23.431 24.6128 23.6053 24.7335 23.8 24.7334H24.7333C24.9911 24.7334 25.2 24.5244 25.2 24.2667V21.0001H25.6667C26.9547 20.9985 27.9985 19.9547 28 18.6667V11.2001C27.9985 9.91206 26.9547 8.86824 25.6667 8.86672ZM3.73333 5.60006C3.73333 4.82685 4.36013 4.20006 5.13333 4.20006H22.8667C23.6399 4.20006 24.2667 4.82685 24.2667 5.60006V8.86672H22.8667C22.6089 8.86672 22.4 9.07567 22.4 9.33339V14.4667H5.6V9.33339C5.6 9.07567 5.39105 8.86672 5.13333 8.86672H3.73333V5.60006ZM0.933333 11.2001C0.933333 10.4268 1.56012 9.80006 2.33333 9.80006H4.66667V14.4667H0.933333V11.2001ZM3.8766 23.8001H3.73333V21.0001H4.9266L3.8766 23.8001ZM24.2667 23.8001H24.1234L23.0734 21.0001H24.2667V23.8001ZM27.0667 18.6667C27.0667 19.4399 26.4399 20.0667 25.6667 20.0667H2.33333C1.56012 20.0667 0.933333 19.4399 0.933333 18.6667V15.4001H27.0667V18.6667ZM27.0667 14.4667H23.3333V9.80006H25.6667C26.4399 9.80006 27.0667 10.4268 27.0667 11.2001V14.4667Z" fill="#909090"/>
</g>
</g>
</g>
<defs>
<filter id="filter0_d_1_287" x="-4" y="3.26672" width="36" height="29.4667" filterUnits="userSpaceOnUse" color-interpolation-filters="sRGB">
<feFlood flood-opacity="0" result="BackgroundImageFix"/>
<feColorMatrix in="SourceAlpha" type="matrix" values="0 0 0 0 0 0 0 0 0 0 0 0 0 0 0 0 0 0 127 0" result="hardAlpha"/>
<feOffset dy="4"/>
<feGaussianBlur stdDeviation="2"/>
<feComposite in2="hardAlpha" operator="out"/>
<feColorMatrix type="matrix" values="0 0 0 0 0 0 0 0 0 0 0 0 0 0 0 0 0 0 0.25 0"/>
<feBlend mode="normal" in2="BackgroundImageFix" result="effect1_dropShadow_1_287"/>
<feBlend mode="normal" in="SourceGraphic" in2="effect1_dropShadow_1_287" result="shape"/>
</filter>
<clipPath id="clip0_1_287">
<rect width="28" height="28" fill="white"/>
</clipPath>
</defs>
</svg>
