<svg width="20" height="20" viewBox="0 0 20 20" fill="none" xmlns="http://www.w3.org/2000/svg">
<g id="star 1" clip-path="url(#clip0_1_272)">
<path id="Vector" d="M19.9825 7.72474C19.9403 7.59515 19.8282 7.50064 19.6932 7.48095L13.2171 6.53978L10.321 0.671562C10.2608 0.549128 10.1363 0.471802 10.0002 0.471802C9.86418 0.471802 9.73925 0.549128 9.67946 0.671562L6.78294 6.54014L0.306844 7.48131C0.17188 7.501 0.0601867 7.59515 0.0175855 7.7251C-0.0242997 7.85434 0.0104256 7.99682 0.108158 8.09169L4.79464 12.6597L3.68809 19.11C3.66518 19.2442 3.72031 19.3799 3.83021 19.4601C3.94083 19.541 4.08725 19.5514 4.20718 19.4873L10.0002 16.4422L15.7926 19.4873C15.8448 19.5149 15.9025 19.5285 15.9594 19.5285C16.0335 19.5285 16.1072 19.5056 16.1699 19.4601C16.2801 19.3799 16.3353 19.2442 16.312 19.11L15.2058 12.66L19.8923 8.09169C19.9897 7.9961 20.0247 7.85398 19.9825 7.72474Z" fill="white"/>
</g>
<defs>
<clipPath id="clip0_1_272">
<rect width="20" height="20" fill="white"/>
</clipPath>
</defs>
</svg>
